<?xml version="1.0" encoding="UTF-8"?>
<svg id="Layer_1" data-name="Layer 1" xmlns="http://www.w3.org/2000/svg" viewBox="0 0 160 160">
  <defs>
    <style>
      .cls-1, .cls-2, .cls-3 {
        fill: #fff;
      }

      .cls-4 {
        fill: #2563eb;
      }

      .cls-2 {
        stroke: #fff;
        stroke-width: .75px;
      }

      .cls-2, .cls-3 {
        stroke-miterlimit: 10;
      }

      .cls-3 {
        stroke: #2563eb;
        stroke-width: 2px;
      }
    </style>
  </defs>
  <rect class="cls-4" x="0" y="0" width="160" height="160" rx="80" ry="80"/>
  <path class="cls-1" d="M83.75,85c0,7.03-3.14,13.87-10.66,14.62-2.19.22-4.44.05-6.5-.73s-3.92-2.2-5.03-4.13c-.7-1.22-1.13-2.67-2.25-3.5,1.93.9,4.21,1.01,6.22.29,8.48-3.02,7.86-19.11-2.05-19.11-7.13,0-13.3,9.77-13.3,22.52,0,15.95,8.17,33.09,17.31,33.09,1.44,0,2.72-.4,3.93-1.1v-9.17c0-1.5.33-4.88-1.25-5.81-.87-.51-2.57-.37-3.55-.51-1.74-.26-3.48-.52-5.21-.77.91-.26,1.83-.53,2.69-.96.7-.35,1.35-.81,2.07-1.13,1.09-.49,2.53-.88,3.73-.88h14.34c2.56,0,4.16,1.48,2.95,3.3-1.77,2.66-4.47,2.98-4.47,6.77v9.47c-3.85,6.18-10.01,11.56-17.87,11.56-13.06,0-25.16-15.05-25.16-35.88s12.1-35.88,27.4-35.88c11.22,0,16.66,8.17,16.66,17.94Z"/>
  <path class="cls-2" d="M97.15,46.88h0M103.54,41.35c-.34,2.4-2.56,4.07-4.96,3.72s-4.06-2.57-3.72-4.96c.34-2.4,2.56-4.07,4.96-3.72,2.4.34,4.06,2.57,3.72,4.96ZM129.21,42.31c-.3,2.12-2.27,3.6-4.39,3.29s-3.59-2.27-3.29-4.39c.3-2.12,2.27-3.6,4.39-3.29s3.59,2.27,3.29,4.39ZM93.64,65.89c-.41,2.9-3.09,4.91-5.99,4.5-2.89-.41-4.91-3.1-4.49-6s3.09-4.91,5.99-4.5c2.89.41,4.91,3.1,4.49,6ZM113.08,62.28c-.16,1.15.63,2.21,1.78,2.38s2.21-.63,2.37-1.78-.63-2.21-1.78-2.38-2.21.63-2.37,1.78ZM84.05,24.9c-.13.89-.95,1.5-1.83,1.38s-1.5-.95-1.37-1.84.95-1.5,1.83-1.38,1.5.95,1.37,1.84ZM105.92,23.37c-.2,1.4.77,2.69,2.16,2.89s2.69-.77,2.89-2.17-.77-2.69-2.16-2.89-2.69.77-2.89,2.17ZM72.85,43.28c-.17,1.22-1.3,2.07-2.52,1.9s-2.07-1.31-1.89-2.53,1.3-2.07,2.52-1.9,2.07,1.31,1.89,2.53ZM97.23,44.63l-7.23,15.43M72.87,42.47l21.95-1.74M83.52,25.86l12.97,11.43M107.33,25.86l-5.95,11.06M103.59,40.1l17.95,1.12M101.98,44.13l12.09,17.25"/>
  <path class="cls-3" d="M118.22,112.04c-1.57,2.31-3.95,2.6-3.95,5.88v8.22c-3.41,5.36-8.84,10.03-15.79,10.03-11.53,0-22.22-13.05-22.22-31.13s10.7-31.16,24.2-31.16c9.93,0,14.74,7.1,14.74,15.58,0,6.1-2.79,12.03-9.43,12.7-1.93.19-3.91.05-5.74-.64-1.81-.67-3.45-1.91-4.43-3.57-.62-1.07-1-2.33-2-3.05,1.71.79,3.74.88,5.5.26,7.5-2.62,6.96-16.6-1.81-16.6-6.31,0-11.77,8.48-11.77,19.56,0,13.84,7.24,28.73,15.29,28.73,1.29,0,2.41-.33,3.48-.95v-7.96c0-1.31.29-4.24-1.1-5.05-.76-.45-2.29-.31-3.14-.45-1.52-.21-3.07-.43-4.6-.67.81-.24,1.62-.45,2.36-.83.62-.31,1.21-.69,1.83-.98.95-.43,2.24-.76,3.31-.76h12.65c2.29,0,3.69,1.29,2.62,2.86Z"/>
</svg>